<svg width="163" height="88" viewBox="0 0 163 88" fill="none" xmlns="http://www.w3.org/2000/svg">
<path d="M68.3812 57.5L61.6558 33L98.3442 33L91.6188 57.5H68.3812Z" fill="white" stroke="#904208"/>
<path d="M98.5 32.5C98.5 32.822 98.2075 33.2862 97.2626 33.8153C96.3593 34.3211 95.0191 34.793 93.3198 35.1954C89.9292 35.9985 85.2197 36.5 80 36.5C74.7803 36.5 70.0708 35.9985 66.6802 35.1954C64.9809 34.793 63.6407 34.3211 62.7374 33.8153C61.7925 33.2862 61.5 32.822 61.5 32.5C61.5 32.178 61.7925 31.7138 62.7374 31.1847C63.6407 30.6789 64.9809 30.207 66.6802 29.8046C70.0708 29.0015 74.7803 28.5 80 28.5C85.2197 28.5 89.9292 29.0015 93.3198 29.8046C95.0191 30.207 96.3593 30.6789 97.2626 31.1847C98.2075 31.7138 98.5 32.178 98.5 32.5Z" fill="white" stroke="#904208"/>
<path d="M73 24.5C73 24.5 72.197 24.8779 71.2045 25.3936C68.5264 26.7851 65.6503 29.8006 67 32.5C74.6 35.3 91.6667 34 93 32.5C93 32.5 93.5081 26.9512 89.9955 25.8101C88.3573 25.2779 86.8917 24.7611 86.5 24.5C86.5 24.5 86.4103 24.394 86.2507 24.208C82.447 19.7759 76.5857 19.8898 73 24.5Z" fill="white" stroke="#904208"/>
<path d="M88.625 19.5C87.0886 19.5047 85.6065 18.9317 84.4727 17.8947C83.3389 16.8578 82.6363 15.4326 82.5041 13.9018C82.372 12.3711 82.82 10.8466 83.7593 9.63065C84.6985 8.41473 86.0605 7.59624 87.575 7.3375C92.5625 6.375 93.875 5.92 95.625 3.75C96.5 5.5 97.375 7.4075 97.375 10.75C97.375 15.5625 93.1925 19.5 88.625 19.5Z" stroke="#148752" stroke-linecap="round" stroke-linejoin="round"/>
<path d="M80.75 20.375C80.75 17.75 82.3687 15.685 85.195 15.125C87.3125 14.705 89.5 13.375 90.375 12.5" stroke="#148752" stroke-linecap="round" stroke-linejoin="round"/>
<path d="M74.0886 8.03531C69.9219 5.34375 65.6094 7.27594 61.625 3.05719C60.6969 2.07281 61.2359 14.0963 66.2234 18.6525C69.8698 21.9806 75.5 21.6094 77.3984 18.375C79.2969 15.1406 78.2553 10.7264 74.0886 8.03531Z" stroke="#148752" stroke-linecap="round" stroke-linejoin="round"/>
<path d="M67.1094 11.8594C71.1406 15.6562 75.3125 17.9062 80.7969 18.75" stroke="#148752" stroke-linecap="round" stroke-linejoin="round"/>
<path d="M8.14 83.11C7.11333 83.11 6.15267 82.89 5.258 82.45C4.378 81.9953 3.608 81.394 2.948 80.646C2.288 79.8833 1.77467 79.0327 1.408 78.094C1.04133 77.1407 0.858 76.158 0.858 75.146C0.858 74.09 1.04133 73.0927 1.408 72.154C1.77467 71.2007 2.28067 70.3573 2.926 69.624C3.586 68.8907 4.356 68.3187 5.236 67.908C6.13067 67.4827 7.09867 67.27 8.14 67.27C9.65067 67.27 10.8973 67.5853 11.88 68.216C12.8627 68.8467 13.6033 69.668 14.102 70.68L12.584 71.736C12.1293 70.8267 11.506 70.152 10.714 69.712C9.922 69.272 9.04933 69.052 8.096 69.052C7.304 69.052 6.58533 69.2207 5.94 69.558C5.29467 69.8953 4.73733 70.3573 4.268 70.944C3.81333 71.516 3.46133 72.1687 3.212 72.902C2.97733 73.6353 2.86 74.398 2.86 75.19C2.86 76.026 2.992 76.818 3.256 77.566C3.53467 78.2993 3.92333 78.952 4.422 79.524C4.92067 80.0813 5.5 80.5213 6.16 80.844C6.82 81.1667 7.53133 81.328 8.294 81.328C9.18867 81.328 10.0393 81.1007 10.846 80.646C11.6527 80.1913 12.4153 79.4947 13.134 78.556V80.602C11.726 82.274 10.0613 83.11 8.14 83.11ZM12.892 76.708H9.526V75.212H14.564V83H12.892V76.708ZM23.3391 73.21C22.3711 73.2247 21.5131 73.474 20.7651 73.958C20.0317 74.4273 19.5111 75.08 19.2031 75.916V83H17.2671V71.516H19.0711V74.178C19.4671 73.386 19.9877 72.748 20.6331 72.264C21.2931 71.7653 21.9824 71.4867 22.7011 71.428C22.8477 71.428 22.9724 71.428 23.0751 71.428C23.1777 71.428 23.2657 71.4353 23.3391 71.45V73.21ZM30.062 83.22C29.1966 83.22 28.4046 83.066 27.686 82.758C26.982 82.4353 26.366 82.0027 25.838 81.46C25.3246 80.9027 24.9213 80.2647 24.628 79.546C24.3493 78.8273 24.21 78.0647 24.21 77.258C24.21 76.1727 24.4593 75.1827 24.958 74.288C25.4566 73.3933 26.146 72.6747 27.026 72.132C27.9206 71.5893 28.94 71.318 30.084 71.318C31.2426 71.318 32.2473 71.5967 33.098 72.154C33.9633 72.6967 34.6306 73.4153 35.1 74.31C35.584 75.19 35.826 76.1433 35.826 77.17C35.826 77.3167 35.8186 77.4633 35.804 77.61C35.804 77.742 35.7966 77.8447 35.782 77.918H26.256C26.3146 78.666 26.52 79.3333 26.872 79.92C27.2386 80.492 27.708 80.9467 28.28 81.284C28.852 81.6067 29.468 81.768 30.128 81.768C30.832 81.768 31.492 81.592 32.108 81.24C32.7386 80.888 33.1713 80.426 33.406 79.854L35.078 80.316C34.8286 80.8733 34.4546 81.372 33.956 81.812C33.472 82.252 32.8926 82.5967 32.218 82.846C31.558 83.0953 30.8393 83.22 30.062 83.22ZM26.19 76.576H34.022C33.9633 75.828 33.7506 75.168 33.384 74.596C33.0173 74.024 32.548 73.5767 31.976 73.254C31.404 72.9313 30.7733 72.77 30.084 72.77C29.4093 72.77 28.786 72.9313 28.214 73.254C27.642 73.5767 27.1726 74.024 26.806 74.596C26.454 75.168 26.2486 75.828 26.19 76.576ZM43.06 83.22C42.1947 83.22 41.4027 83.066 40.684 82.758C39.98 82.4353 39.364 82.0027 38.836 81.46C38.3227 80.9027 37.9193 80.2647 37.626 79.546C37.3473 78.8273 37.208 78.0647 37.208 77.258C37.208 76.1727 37.4573 75.1827 37.956 74.288C38.4547 73.3933 39.144 72.6747 40.024 72.132C40.9187 71.5893 41.938 71.318 43.082 71.318C44.2407 71.318 45.2453 71.5967 46.096 72.154C46.9613 72.6967 47.6287 73.4153 48.098 74.31C48.582 75.19 48.824 76.1433 48.824 77.17C48.824 77.3167 48.8167 77.4633 48.802 77.61C48.802 77.742 48.7947 77.8447 48.78 77.918H39.254C39.3127 78.666 39.518 79.3333 39.87 79.92C40.2367 80.492 40.706 80.9467 41.278 81.284C41.85 81.6067 42.466 81.768 43.126 81.768C43.83 81.768 44.49 81.592 45.106 81.24C45.7367 80.888 46.1693 80.426 46.404 79.854L48.076 80.316C47.8267 80.8733 47.4527 81.372 46.954 81.812C46.47 82.252 45.8907 82.5967 45.216 82.846C44.556 83.0953 43.8373 83.22 43.06 83.22ZM39.188 76.576H47.02C46.9613 75.828 46.7487 75.168 46.382 74.596C46.0153 74.024 45.546 73.5767 44.974 73.254C44.402 72.9313 43.7713 72.77 43.082 72.77C42.4073 72.77 41.784 72.9313 41.212 73.254C40.64 73.5767 40.1707 74.024 39.804 74.596C39.452 75.168 39.2467 75.828 39.188 76.576ZM60.9421 83H59.0061V76.576C59.0061 75.3587 58.8154 74.4713 58.4341 73.914C58.0674 73.342 57.5027 73.056 56.7401 73.056C56.2121 73.056 55.6841 73.188 55.1561 73.452C54.6427 73.716 54.1807 74.0753 53.7701 74.53C53.3741 74.97 53.0881 75.4833 52.9121 76.07V83H50.9761V71.516H52.7361V73.98C53.0441 73.4373 53.4401 72.968 53.9241 72.572C54.4081 72.176 54.9581 71.868 55.5741 71.648C56.1901 71.428 56.8354 71.318 57.5101 71.318C58.1701 71.318 58.7201 71.4427 59.1601 71.692C59.6147 71.9267 59.9667 72.264 60.2161 72.704C60.4801 73.1293 60.6634 73.6353 60.7661 74.222C60.8834 74.8087 60.9421 75.4467 60.9421 76.136V83ZM76.1611 83.11C75.0611 83.11 74.0637 82.89 73.1691 82.45C72.2744 82.01 71.4971 81.416 70.8371 80.668C70.1917 79.9053 69.6931 79.0547 69.3411 78.116C68.9891 77.1627 68.8131 76.1873 68.8131 75.19C68.8131 74.1487 68.9964 73.1587 69.3631 72.22C69.7444 71.2667 70.2651 70.4233 70.9251 69.69C71.5997 68.942 72.3844 68.3553 73.2791 67.93C74.1737 67.49 75.1491 67.27 76.2051 67.27C77.3051 67.27 78.3024 67.4973 79.1971 67.952C80.0917 68.4067 80.8617 69.0153 81.5071 69.778C82.1524 70.5407 82.6511 71.3913 83.0031 72.33C83.3551 73.2687 83.5311 74.2293 83.5311 75.212C83.5311 76.2533 83.3477 77.2507 82.9811 78.204C82.6144 79.1427 82.0937 79.986 81.4191 80.734C80.7591 81.4673 79.9817 82.0467 79.0871 82.472C78.1924 82.8973 77.2171 83.11 76.1611 83.11ZM70.8151 75.19C70.8151 75.982 70.9397 76.752 71.1891 77.5C71.4531 78.2333 71.8197 78.886 72.2891 79.458C72.7584 80.03 73.3231 80.4847 73.9831 80.822C74.6431 81.1593 75.3764 81.328 76.1831 81.328C77.0191 81.328 77.7671 81.152 78.4271 80.8C79.0871 80.448 79.6444 79.9787 80.0991 79.392C80.5684 78.8053 80.9204 78.1453 81.1551 77.412C81.4044 76.6787 81.5291 75.938 81.5291 75.19C81.5291 74.398 81.3971 73.6353 81.1331 72.902C80.8837 72.1687 80.5171 71.516 80.0331 70.944C79.5637 70.3573 78.9991 69.9027 78.3391 69.58C77.6937 69.2427 76.9751 69.074 76.1831 69.074C75.3471 69.074 74.5991 69.25 73.9391 69.602C73.2791 69.9393 72.7144 70.4013 72.2451 70.988C71.7904 71.5747 71.4384 72.2347 71.1891 72.968C70.9397 73.6867 70.8151 74.4273 70.8151 75.19ZM91.0561 83.22C90.1908 83.22 89.3988 83.066 88.6801 82.758C87.9761 82.4353 87.3601 81.9953 86.8321 81.438C86.3188 80.8807 85.9154 80.2427 85.6221 79.524C85.3434 78.8053 85.2041 78.0427 85.2041 77.236C85.2041 76.1507 85.4461 75.1607 85.9301 74.266C86.4141 73.3713 87.0961 72.66 87.9761 72.132C88.8561 71.5893 89.8754 71.318 91.0341 71.318C92.1634 71.318 93.1461 71.5747 93.9821 72.088C94.8328 72.5867 95.4634 73.2613 95.8741 74.112L93.9821 74.706C93.6888 74.1633 93.2781 73.7453 92.7501 73.452C92.2221 73.144 91.6354 72.99 90.9901 72.99C90.2861 72.99 89.6408 73.1733 89.0541 73.54C88.4821 73.9067 88.0274 74.4127 87.6901 75.058C87.3528 75.6887 87.1841 76.4147 87.1841 77.236C87.1841 78.0427 87.3528 78.776 87.6901 79.436C88.0421 80.0813 88.5041 80.5947 89.0761 80.976C89.6628 81.3573 90.3081 81.548 91.0121 81.548C91.4668 81.548 91.8994 81.4673 92.3101 81.306C92.7354 81.1447 93.1021 80.932 93.4101 80.668C93.7328 80.3893 93.9528 80.0887 94.0701 79.766L95.9621 80.338C95.7274 80.8953 95.3681 81.394 94.8841 81.834C94.4148 82.2593 93.8501 82.5967 93.1901 82.846C92.5448 83.0953 91.8334 83.22 91.0561 83.22ZM103.13 83.22C102.265 83.22 101.473 83.066 100.754 82.758C100.05 82.4353 99.4343 81.9953 98.9063 81.438C98.393 80.8807 97.9897 80.2427 97.6963 79.524C97.4177 78.8053 97.2783 78.0427 97.2783 77.236C97.2783 76.1507 97.5203 75.1607 98.0043 74.266C98.4883 73.3713 99.1703 72.66 100.05 72.132C100.93 71.5893 101.95 71.318 103.108 71.318C104.238 71.318 105.22 71.5747 106.056 72.088C106.907 72.5867 107.538 73.2613 107.948 74.112L106.056 74.706C105.763 74.1633 105.352 73.7453 104.824 73.452C104.296 73.144 103.71 72.99 103.064 72.99C102.36 72.99 101.715 73.1733 101.128 73.54C100.556 73.9067 100.102 74.4127 99.7643 75.058C99.427 75.6887 99.2583 76.4147 99.2583 77.236C99.2583 78.0427 99.427 78.776 99.7643 79.436C100.116 80.0813 100.578 80.5947 101.15 80.976C101.737 81.3573 102.382 81.548 103.086 81.548C103.541 81.548 103.974 81.4673 104.384 81.306C104.81 81.1447 105.176 80.932 105.484 80.668C105.807 80.3893 106.027 80.0887 106.144 79.766L108.036 80.338C107.802 80.8953 107.442 81.394 106.958 81.834C106.489 82.2593 105.924 82.5967 105.264 82.846C104.619 83.0953 103.908 83.22 103.13 83.22ZM109.328 79.678C109.328 78.9447 109.533 78.314 109.944 77.786C110.369 77.2433 110.949 76.8253 111.682 76.532C112.415 76.2387 113.266 76.092 114.234 76.092C114.747 76.092 115.29 76.136 115.862 76.224C116.434 76.2973 116.94 76.4147 117.38 76.576V75.74C117.38 74.86 117.116 74.1707 116.588 73.672C116.06 73.1587 115.312 72.902 114.344 72.902C113.713 72.902 113.105 73.0193 112.518 73.254C111.946 73.474 111.337 73.7967 110.692 74.222L109.988 72.858C110.736 72.3447 111.484 71.9633 112.232 71.714C112.98 71.45 113.757 71.318 114.564 71.318C116.031 71.318 117.189 71.7287 118.04 72.55C118.891 73.3567 119.316 74.486 119.316 75.938V80.8C119.316 81.0347 119.36 81.2107 119.448 81.328C119.551 81.4307 119.712 81.4893 119.932 81.504V83C119.741 83.0293 119.573 83.0513 119.426 83.066C119.294 83.0807 119.184 83.088 119.096 83.088C118.641 83.088 118.297 82.9633 118.062 82.714C117.842 82.4647 117.717 82.2007 117.688 81.922L117.644 81.196C117.145 81.8413 116.493 82.34 115.686 82.692C114.879 83.044 114.08 83.22 113.288 83.22C112.525 83.22 111.843 83.066 111.242 82.758C110.641 82.4353 110.171 82.01 109.834 81.482C109.497 80.9393 109.328 80.338 109.328 79.678ZM116.808 80.492C116.984 80.2867 117.123 80.0813 117.226 79.876C117.329 79.656 117.38 79.4727 117.38 79.326V77.896C116.925 77.72 116.449 77.588 115.95 77.5C115.451 77.3973 114.96 77.346 114.476 77.346C113.493 77.346 112.694 77.544 112.078 77.94C111.477 78.3213 111.176 78.8493 111.176 79.524C111.176 79.8907 111.271 80.25 111.462 80.602C111.667 80.9393 111.961 81.218 112.342 81.438C112.738 81.658 113.222 81.768 113.794 81.768C114.395 81.768 114.967 81.6507 115.51 81.416C116.053 81.1667 116.485 80.8587 116.808 80.492ZM126.35 83.22C125.396 83.22 124.502 83.066 123.666 82.758C122.83 82.4353 122.111 81.9587 121.51 81.328L122.258 79.964C122.918 80.58 123.578 81.02 124.238 81.284C124.898 81.548 125.572 81.68 126.262 81.68C127.054 81.68 127.699 81.5333 128.198 81.24C128.696 80.932 128.946 80.4847 128.946 79.898C128.946 79.4727 128.814 79.1573 128.55 78.952C128.3 78.7467 127.941 78.578 127.472 78.446C127.002 78.2993 126.445 78.138 125.8 77.962C125.008 77.7273 124.34 77.478 123.798 77.214C123.255 76.95 122.844 76.62 122.566 76.224C122.287 75.828 122.148 75.3293 122.148 74.728C122.148 73.9947 122.338 73.3787 122.72 72.88C123.101 72.3667 123.622 71.978 124.282 71.714C124.956 71.45 125.719 71.318 126.57 71.318C127.42 71.318 128.19 71.45 128.88 71.714C129.569 71.978 130.163 72.3667 130.662 72.88L129.782 74.222C129.327 73.7527 128.828 73.408 128.286 73.188C127.743 72.9533 127.134 72.836 126.46 72.836C126.064 72.836 125.675 72.8873 125.294 72.99C124.912 73.078 124.597 73.2467 124.348 73.496C124.098 73.7307 123.974 74.068 123.974 74.508C123.974 74.8747 124.069 75.168 124.26 75.388C124.465 75.5933 124.758 75.7693 125.14 75.916C125.536 76.0627 126.012 76.224 126.57 76.4C127.435 76.6493 128.183 76.8987 128.814 77.148C129.459 77.3973 129.958 77.72 130.31 78.116C130.662 78.512 130.838 79.062 130.838 79.766C130.838 80.8513 130.427 81.702 129.606 82.318C128.784 82.9193 127.699 83.22 126.35 83.22ZM133.154 83V71.516H135.09V83H133.154ZM133.154 69.36V66.94H135.09V69.36H133.154ZM143.24 83.22C142.375 83.22 141.59 83.066 140.886 82.758C140.182 82.4353 139.573 82.0027 139.06 81.46C138.547 80.9027 138.151 80.2647 137.872 79.546C137.593 78.8273 137.454 78.072 137.454 77.28C137.454 76.4733 137.593 75.7107 137.872 74.992C138.151 74.2733 138.547 73.6427 139.06 73.1C139.573 72.5427 140.182 72.11 140.886 71.802C141.605 71.4793 142.389 71.318 143.24 71.318C144.105 71.318 144.89 71.4793 145.594 71.802C146.298 72.11 146.907 72.5427 147.42 73.1C147.948 73.6427 148.351 74.2733 148.63 74.992C148.909 75.7107 149.048 76.4733 149.048 77.28C149.048 78.072 148.909 78.8273 148.63 79.546C148.351 80.2647 147.955 80.9027 147.442 81.46C146.929 82.0027 146.313 82.4353 145.594 82.758C144.89 83.066 144.105 83.22 143.24 83.22ZM139.434 77.302C139.434 78.094 139.603 78.8127 139.94 79.458C140.292 80.1033 140.754 80.6167 141.326 80.998C141.898 81.3647 142.536 81.548 143.24 81.548C143.944 81.548 144.582 81.3573 145.154 80.976C145.741 80.5947 146.203 80.0813 146.54 79.436C146.892 78.776 147.068 78.05 147.068 77.258C147.068 76.466 146.892 75.7473 146.54 75.102C146.203 74.4567 145.741 73.9433 145.154 73.562C144.582 73.1807 143.944 72.99 143.24 72.99C142.536 72.99 141.898 73.188 141.326 73.584C140.754 73.9653 140.292 74.4787 139.94 75.124C139.603 75.7693 139.434 76.4953 139.434 77.302ZM161.36 83H159.424V76.576C159.424 75.3587 159.233 74.4713 158.852 73.914C158.485 73.342 157.921 73.056 157.158 73.056C156.63 73.056 156.102 73.188 155.574 73.452C155.061 73.716 154.599 74.0753 154.188 74.53C153.792 74.97 153.506 75.4833 153.33 76.07V83H151.394V71.516H153.154V73.98C153.462 73.4373 153.858 72.968 154.342 72.572C154.826 72.176 155.376 71.868 155.992 71.648C156.608 71.428 157.253 71.318 157.928 71.318C158.588 71.318 159.138 71.4427 159.578 71.692C160.033 71.9267 160.385 72.264 160.634 72.704C160.898 73.1293 161.081 73.6353 161.184 74.222C161.301 74.8087 161.36 75.4467 161.36 76.136V83Z" fill="#148752"/>
</svg>
